HIERARCHY
ROOT Hips
{
  OFFSET 269.752 109.085 -241.237
  CHANNELS 6 Xposition Yposition Zposition Zrotation Xrotation Yrotation
  JOINT ToSpine
  {
    OFFSET -2.69724 7.43032 -0.144315
    CHANNELS 3 Zrotation Xrotation Yrotation
    JOINT Spine
    {
      OFFSET -0.0310711 10.7595 1.96963
      CHANNELS 3 Zrotation Xrotation Yrotation
      JOINT Spine1
      {
        OFFSET 19.9056 3.91189 0.764692
        CHANNELS 3 Zrotation Xrotation Yrotation
        JOINT Neck
        {
          OFFSET 25.9749 7.03908 -0.130764
          CHANNELS 3 Zrotation Xrotation Yrotation
          JOINT Head
          {
            OFFSET 9.52751 0.295786 -0.907742
            CHANNELS 3 Zrotation Xrotation Yrotation
            End Site
            {
              OFFSET 16.4037 0.713936 2.7358
            }
          }
        }
        JOINT LeftShoulder
        {
          OFFSET 17.7449 4.33886 11.7777
          CHANNELS 3 Zrotation Xrotation Yrotation
          JOINT LeftArm
          {
            OFFSET 0.911315 1.27913 9.80584
            CHANNELS 3 Zrotation Xrotation Yrotation
            JOINT LeftForeArm
            {
              OFFSET 28.6126 1.18197 -3.53199
              CHANNELS 3 Zrotation Xrotation Yrotation
              JOINT LeftHand
              {
                OFFSET 27.5088 0.0218783 0.327423
                CHANNELS 3 Zrotation Xrotation Yrotation
                End Site
                {
                  OFFSET 18.6038 -0.000155887 0.382096
                }
              }
            }
          }
        }
        JOINT RightShoulder
        {
          OFFSET 17.1009 2.89543 -12.2328
          CHANNELS 3 Zrotation Xrotation Yrotation
          JOINT RightArm
          {
            OFFSET 1.4228 0.178766 -10.211
            CHANNELS 3 Zrotation Xrotation Yrotation
            JOINT RightForeArm
            {
              OFFSET 28.733 1.87905 2.64907
              CHANNELS 3 Zrotation Xrotation Yrotation
              JOINT RightHand
              {
                OFFSET 27.4588 0.290562 -0.101845
                CHANNELS 3 Zrotation Xrotation Yrotation
                End Site
                {
                  OFFSET 17.8396 -0.255518 -0.000602873
                }
              }
            }
          }
        }
      }
    }
  }
  JOINT LeftUpLeg
  {
    OFFSET -5.61296 -2.22332 -10.2353
    CHANNELS 3 Zrotation Xrotation Yrotation
    JOINT LeftLeg
    {
      OFFSET 2.56703 -44.7417 -7.93097
      CHANNELS 3 Zrotation Xrotation Yrotation
      JOINT LeftFoot
      {
        OFFSET 3.16933 -46.5642 -3.96578
        CHANNELS 3 Zrotation Xrotation Yrotation
        JOINT LeftToeBase
        {
          OFFSET 0.346054 -6.02161 12.8035
          CHANNELS 3 Zrotation Xrotation Yrotation
          End Site
          {
            OFFSET 0.134235 -1.35082 5.13018
          }
        }
      }
    }
  }
  JOINT RightUpLeg
  {
    OFFSET -5.7928 -1.72406 10.6446
    CHANNELS 3 Zrotation Xrotation Yrotation
    JOINT RightLeg
    {
      OFFSET -2.57161 -44.7178 -7.85259
      CHANNELS 3 Zrotation Xrotation Yrotation
      JOINT RightFoot
      {
        OFFSET -3.10148 -46.5936 -4.03391
        CHANNELS 3 Zrotation Xrotation Yrotation
        JOINT RightToeBase
        {
          OFFSET -0.0828122 -6.13587 12.8035
          CHANNELS 3 Zrotation Xrotation Yrotation
          End Site
          {
            OFFSET -0.131328 -1.35082 5.13018
          }
        }
      }
    }
  }
}
MOTION
Frames:	10
Frame Time:	0.0333333
269.871 109.136 -241.232 66.3991 45.2832 19.7548 -70.1915 0 88.8779 36.9123 67.5765 39.7204 17.0159 19.1516 23.9302 -174.225 18.5779 177.142 -159.196 55.9106 149.034 2.71936 -5.79554 -53.4504 -97.8728 39.1218 -100.433 -11.8521 44.4536 4.08162 2.48526 -0.0323839 0.0859224 0.420159 -2.0839 26.9956 -89.1677 -45.4325 93.4743 -5.52493 -10.3576 9.38164 11.6336 -2.795 -28.7802 -59.2058 -2.36962 94.598 3.37491 16.8215 -6.50573 8.84239 7.57626 -1.21104 -10.5455 -26.8256 3.57547 -60.223 8.25802 83.8534 -1.4652 17.9941 2.04112 -7.31534 -3.19397 1.08297 -0.0201845 1.87824 2.24453 
269.895 109.131 -241.262 66.4976 45.316 19.6938 -70.1915 0 88.8779 37.0208 67.5594 39.6736 17.1582 19.1552 23.7425 -173.433 18.6528 176.098 -157.005 55.1642 147.597 2.7425 -5.72995 -53.3709 -97.8783 39.1633 -100.476 -11.8332 44.5287 4.06664 2.43253 -0.0327137 0.0827353 0.428028 -2.12172 27.1996 -88.6925 -45.298 93.7407 -5.34865 -10.102 9.79301 11.5039 -2.76526 -28.8134 -59.2886 -2.35698 94.6401 3.38591 16.8602 -6.54858 8.85448 7.51191 -1.21299 -10.5243 -26.771 3.57157 -60.3996 8.269 83.8951 -1.47824 17.8324 1.9053 -7.46999 -3.44255 1.09914 -0.0462991 2.43533 2.96874 
269.754 109.103 -241.24 66.3692 45.0247 19.7484 -70.1915 0 88.8779 37.3735 67.703 39.7567 16.8113 19.2297 23.4264 -172.558 18.7775 175.298 -155.033 54.5552 146.446 2.71257 -5.81688 -53.4937 -98.2843 38.9324 -100.17 -12.3455 45.5189 4.91889 2.09026 -0.0348518 -0.377617 0.440918 -2.20818 27.2412 -88.9786 -45.1875 93.6872 -5.46115 -10.9192 9.34665 11.9287 -2.75087 -27.6415 -58.9992 -2.4139 94.553 3.4892 17.0033 -6.25152 8.25742 7.21349 -1.10303 -10.2983 -26.1931 3.54024 -60.1007 8.25422 83.9409 -1.46598 18.1466 2.77871 -7.83805 -3.26616 1.13243 0.267028 3.56794 2.13738 
269.75 109.096 -241.245 66.5286 45.0522 19.5748 -70.1915 0 88.8779 37.5752 67.797 39.5457 16.8853 19.2685 23.3277 -172.331 18.8384 174.934 -154.054 54.2387 145.8 2.73454 -5.74441 -53.3227 -98.2886 39.144 -100.302 -12.4509 45.313 5.09747 2.28856 -0.0398063 -0.43528 0.43463 -2.17107 27.1653 -88.8847 -45.4252 93.5773 -5.11328 -10.907 9.90869 11.9172 -2.73725 -27.5382 -59.1698 -2.48361 94.5424 3.48726 16.9162 -6.1937 8.26114 7.272 -1.10368 -10.3221 -26.2388 3.5086 -60.2088 8.18429 83.9024 -1.48877 18.2621 3.0417 -7.98417 -3.47539 1.14652 0.33924 3.82368 1.95432 
269.757 109.087 -241.233 66.3326 45.1122 19.7586 -70.1915 0 88.8779 37.392 67.6223 39.67 16.9803 19.2066 23.2313 -172.057 18.924 174.344 -153.189 53.9359 145.098 2.72326 -5.73848 -53.0096 -97.9243 39.0973 -100.51 -12.6209 45.4389 5.09287 2.15775 -0.0437122 -0.542055 0.421828 -2.06922 27.3077 -88.8036 -45.4243 93.5169 -5.00729 -11.1118 10.0237 12.1291 -2.71866 -26.8776 -58.978 -2.47002 94.5237 3.50477 17.0364 -6.29531 8.25349 7.23873 -1.1023 -10.3113 -26.2208 3.51419 -60.1653 8.2476 83.9696 -1.52051 18.2694 3.34709 -8.26876 -3.47473 1.17263 0.470888 3.77213 1.13518 
269.752 109.085 -241.237 66.4435 44.989 19.6137 -70.1915 0 88.8779 37.5138 67.7027 39.6602 16.9022 19.2746 23.0258 -172.025 18.9868 174.216 -153.071 53.9364 144.908 2.73344 -5.69188 -52.8163 -98.065 39.3348 -100.282 -12.3865 45.3092 4.8511 2.15921 -0.0463168 -0.403616 0.43674 -2.1504 27.5631 -88.8218 -45.0914 93.727 -5.27072 -11.5889 9.48293 12.288 -2.66352 -26.0134 -59.0669 -2.47823 94.5483 3.47273 16.9611 -6.14349 8.26863 7.27003 -1.10504 -10.3257 -26.2347 3.47772 -60.1838 8.24273 84.007 -1.57647 18.3977 3.75952 -8.34866 -3.55933 1.17986 0.557485 3.86031 0.718032 
269.817 109.076 -241.261 66.4124 45.2319 19.7196 -70.1915 0 88.8779 37.5643 67.6358 39.5 17.0293 19.1841 23.1237 -172.662 19.0092 174.815 -154.039 54.3703 145.362 2.77332 -5.59026 -52.8008 -98.1748 39.4994 -100.382 -12.558 45.4453 5.15575 2.10739 -0.0486241 -0.403493 0.433192 -2.14176 27.3821 -89.2669 -45.3037 93.3999 -5.15039 -12.2061 9.47238 12.5061 -2.63656 -25.3075 -59.0963 -2.4432 94.5827 3.49061 17.0484 -6.41963 8.26837 7.21694 -1.10502 -10.3352 -26.239 3.43312 -60.4204 8.29551 84.0055 -1.56254 18.1988 3.77023 -8.69223 -3.41564 1.21172 0.576152 3.51173 0.252543 
269.75 109.072 -241.275 66.5096 44.9199 19.4794 -70.1915 0 88.8779 37.6051 67.7403 39.7382 16.8914 19.347 22.7241 -172.978 19.0488 175.002 -154.779 54.6821 145.675 2.75747 -5.59906 -52.5264 -98.249 39.7091 -100.099 -12.3049 45.5374 4.86746 2.24373 -0.048975 -0.334085 0.448645 -2.23382 27.5428 -88.9873 -45.1522 93.6329 -5.1495 -12.3568 9.47642 12.5676 -2.58121 -24.6764 -59.1444 -2.5583 94.5444 3.46111 16.9065 -6.00093 8.29647 7.27709 -1.11012 -10.3303 -26.2453 3.44744 -60.2607 8.17038 83.9982 -1.5771 18.4429 4.29968 -8.86928 -3.39169 1.22819 0.591351 3.31131 -0.0492289 
269.745 109.069 -241.264 66.5021 45.0511 19.5432 -70.1915 0 88.8779 37.8965 67.827 39.4005 16.7673 19.2978 22.772 -173.627 19.084 175.486 -155.929 55.1579 146.168 2.75244 -5.57979 -52.2452 -98.2286 40.0182 -100.109 -12.4345 45.539 5.03096 2.41009 -0.0482061 -0.315056 0.444096 -2.20821 27.4811 -88.5053 -45.2074 93.9096 -5.2327 -12.3611 9.42374 12.8872 -2.55222 -23.7975 -59.1262 -2.5401 94.5453 3.47647 16.9793 -6.13778 8.30089 7.27222 -1.11093 -10.3464 -26.2718 3.41834 -60.3234 8.19899 83.9975 -1.57949 18.4279 4.30959 -8.90727 -3.36973 1.23184 0.621727 3.24209 -0.305216 
269.732 109.069 -241.319 66.4702 44.9852 19.603 -70.1915 0 88.8779 37.8839 67.7697 39.7066 16.7783 19.3446 22.4962 -174.171 19.1431 175.945 -157.114 55.6664 146.768 2.7245 -5.68791 -52.5774 -98.0912 39.5522 -100.13 -12.3771 45.2354 4.87559 2.19581 -0.0487357 -0.289469 0.451795 -2.2501 27.5998 -88.6883 -45.2689 93.4823 -4.78018 -12.6584 10.0041 12.8713 -2.51274 -23.4741 -59.0867 -2.51616 94.5603 3.49584 17.0083 -6.09191 8.30834 7.23453 -1.11229 -10.3602 -26.2653 3.34961 -60.3436 8.20928 84.003 -1.54009 18.3566 4.3999 -8.92298 -3.34712 1.23343 0.635238 3.23384 -0.395021 
